<svg xmlns="http://www.w3.org/2000/svg" width="277.19" height="352" viewBox="0 0 277.19 352"><g transform="translate(0.025 0.018)"><g transform="translate(15.058 49.581)"><path d="M87.141,61.384c-7.6-4.259-15.514-6.084-24.335-7.3-5.78-.608-23.118,0-26.16-3.954C30.563,42.524,19.612,53.475,26,60.776c4.867,5.78,14.905,6.084,21.9,6.692,6.388.608,13.08,1.217,19.164,2.434A8.311,8.311,0,0,0,71.02,82.069c3.042,1.217,3.042,3.65,1.521,6.084a5.848,5.848,0,0,0-4.563-3.346,14.32,14.32,0,0,0-8.821,1.217,3.286,3.286,0,0,0-2.129.913c-1.521.608-3.042,1.521-4.867,2.129a116.411,116.411,0,0,1-17.643,4.867c-8.213,1.521-6.388,13.688.913,14.905a5.3,5.3,0,0,0,4.563,1.521,2.3,2.3,0,0,0,1.217-.3,7.1,7.1,0,0,0,6.692,1.521,56.309,56.309,0,0,0,15.818-6.692c1.825,4.563,7.909,7.3,12.167,2.738,6.084-6.388,12.776-12.167,12.776-21.6a18.439,18.439,0,0,0-3.346-10.647C90.792,73.552,93.834,65.034,87.141,61.384Z" transform="translate(34.127 47.554)" fill="#fcf4b4"/><path d="M222.021,52.831c-10.647,3.65-21.6,2.433-32.548,1.217h-.608c-.608-5.475-8.821-8.517-13.08-4.259-.3.3-.3.608-.608.608-2.433-3.954-5.78-7.3-8.821-10.647-2.738-4.563-5.171-9.43-7.6-13.688a6.342,6.342,0,0,0-5.78-3.65,7.155,7.155,0,0,0-7,0c-12.167,6.388-25.247,15.514-38.936,19.164-1.825-3.65-6.084-6.388-10.951-4.563C85.441,41.576,74.49,46.139,63.844,50.7,55.022,54.352,46.2,57.09,40.117,65c-5.78,7.3-9.126,17.339-13.993,25.552-6.084,10.038-12.776,19.468-19.772,28.9-5.78,7.909,7.6,15.514,13.08,7.6l.608-.608c0,3.954-.608,7.6-.608,10.951-.3,7.909-.608,16.122-1.521,24.031-.913,9.734,14.3,9.734,15.209,0,.913-10.647,1.521-21.293,1.521-32.244,0-7.6.3-14.905-2.129-21.9,4.563-7.3,9.126-14.905,13.384-22.51l.913,2.738c1.217,3.954,5.475,6.692,9.43,5.171a7.553,7.553,0,0,0,5.171-9.43c0-.3-.3-.608-.3-.913C63.54,85.683,67.8,86.9,71.144,84.771a9.258,9.258,0,0,0,2.433-2.433,162.809,162.809,0,0,0,7.6,16.122c4.563,8.517,17.643.913,13.08-7.6-3.954-7.3-13.384-24.639-7.909-32.548a2.761,2.761,0,0,0,.913-2.129,1.062,1.062,0,0,0,.608-.3,6.683,6.683,0,0,0,5.475,2.433c16.122.3,31.027-7,45.324-14.905a31.945,31.945,0,0,0,12.167,12.472,6.864,6.864,0,0,0,7.6-.3,18.464,18.464,0,0,0,2.129,3.042,10.354,10.354,0,0,1,0,6.084L148.712,76.558c-2.738,2.738-2.434,6.388-.913,9.126A92.408,92.408,0,0,1,133.5,93.9c-8.821,3.954-1.217,17.034,7.6,13.08a89.674,89.674,0,0,0,38.328-32.852,3.307,3.307,0,0,1,1.521.3c-2.434,8.517-5.475,17.034-11.863,23.727-6.084,6.692-15.209,8.821-21.6,14.905-4.867,4.867-.913,12.472,5.475,13.08,15.514.913,32.852-19.468,42.282-37.719,3.346,7,5.171,14.905,2.434,23.422-2.738,9.43,11.863,13.384,14.6,3.954A42.863,42.863,0,0,0,212.9,92.68c.608-.3,1.217-.913,1.825-1.217,2.738-3.042,3.042-7.909,0-10.647a47.444,47.444,0,0,0-10.647-7.3,13.506,13.506,0,0,0-2.434-3.346c8.213.3,16.426,0,24.639-2.738C235.405,64.39,231.451,49.789,222.021,52.831Z" transform="translate(-4.933 -5.643)" fill="#fcf4b4"/><path d="M107.724,86.224a6.528,6.528,0,0,0-1.217-4.563c-2.433-3.346-6.692-4.867-10.342-2.738-2.433,1.217-6.084-.3-8.517-1.217a92.909,92.909,0,0,1-9.734-3.954c-.3-.3-.913-.3-1.217-.608V71.928a8.755,8.755,0,0,0-4.259-6.388c-3.954-3.65-11.559-3.65-12.472,3.042-.3,2.738-.608,5.171-.913,7.6a60.547,60.547,0,0,0-3.346,25.552,10.665,10.665,0,0,0-4.259,1.825c-6.692,5.475-7,15.818-6.084,23.727a30.888,30.888,0,0,0,1.825,7.6h-.3a7.3,7.3,0,0,0-3.346,4.563c-.913,3.65,1.217,8.821,5.171,9.43a65.873,65.873,0,0,1,7.6,1.217c2.129.3,3.954.3,5.78-.913a8.064,8.064,0,0,0,1.825-1.521,37.823,37.823,0,0,0,4.867-1.217c6.084-2.738,4.259-12.472-1.825-13.993-1.217-.3-2.129-.3-3.346-.608a6.7,6.7,0,0,1-.3-2.433,29.513,29.513,0,0,1-.3-5.171c3.954-1.521,7.3-4.259,10.647-7,1.217-.3,2.129-.913,3.346-1.217,5.475-1.521,11.863-1.217,17.034-3.954,8.213-4.563,14.3-14.905,14.6-24.031A2.168,2.168,0,0,1,107.724,86.224Z" transform="translate(73.469 79.292)" fill="#fcf4b4"/><path d="M74.689,38.228c3.65-4.563,1.825-13.08-5.475-12.472-13.993.913-27.377-1.521-39.848-8.517-8.517-4.563-16.426,8.517-7.6,13.08A85.822,85.822,0,0,0,64.955,40.965C52.787,48.874,29.669,50.7,17.806,44.007,9.289,39.14,1.684,52.22,10.2,57.087c19.164,11.255,50.8,7,67.834-6.692C83.206,46.137,79.86,40.053,74.689,38.228Z" transform="translate(-1.786 -16.287)" fill="#fcf4b4"/><path d="M109.951,124.786C97.175,138.779,77.1,144.558,60.064,135.128c-17.643-9.43-27.073-28.594-34.373-46.541-3.65-8.821-18.251-5.171-14.6,3.954,9.734,23.422,22.51,48.366,47.453,58.4,21.9,8.821,46.845,1.825,62.358-15.514C127.289,128.132,116.643,117.486,109.951,124.786Z" transform="translate(6.451 121.036)" fill="#fcf4b4"/><path d="M37.443,89.5C30.751,88.281,26.8,94.973,28.318,99.84a10.348,10.348,0,0,0,.3,3.042c1.521,5.171,5.78,7,10.038,8.821a8.59,8.59,0,0,0,5.475.608c.608,0,.913.3,1.521.3h0a17.247,17.247,0,0,0,2.433,3.954c2.129,2.738,5.171,5.171,8.821,5.171,6.388.3,11.255-5.171,11.255-11.559C68.166,94.06,49.307,91.627,37.443,89.5Z" transform="translate(42.152 132.902)" fill="#fcf4b4"/><path d="M51.485,83.237c-4.259.608-8.821,1.217-13.08,1.521-3.954.608-7.6,3.042-7.6,7.6,0,3.65,3.65,8.213,7.6,7.6,4.259-.608,8.821-1.217,13.08-1.521,3.954-.608,7.6-3.042,7.6-7.6C59.089,87.191,55.743,82.629,51.485,83.237Z" transform="translate(47.883 120.303)" fill="#fcf4b4"/><path d="M41.7,77c-9.734,0-9.734,15.209,0,15.209S51.434,77,41.7,77Z" transform="translate(55.233 107.68)" fill="#fcf4b4"/><path d="M87.761,64.1c-3.954,1.217-6.084-3.346-9.734-4.867C73.16,57.412,66.772,57.716,61.6,57.412c-9.734-.608-9.734,14.6,0,15.209,3.346.3,6.692.3,10.038.608h.608l.608.608A27.423,27.423,0,0,1,75.9,76.576,19.152,19.152,0,0,0,91.715,78.7C100.841,75.663,96.886,60.758,87.761,64.1Z" transform="translate(95.866 67.648)" fill="#fcf4b4"/></g><g transform="translate(-0.025 -0.018)"><path d="M48.768,50.455c-8.517-.608-12.167-2.433-17.947-2.738-5.78-.608-7.909,10.038-2.129,11.863C43.9,64.143,65.5,57.755,83.749,71.139c.913.608,2.433,0,2.129-1.217a26.091,26.091,0,0,0-3.65-10.342C78.578,52.28,62.456,51.671,48.768,50.455Z" transform="translate(51.69 97.436)" fill="#20212c"/><path d="M209.583,99.124c1.521,1.217,2.434,1.825,2.738,2.129s.608.3,1.217.3a1.673,1.673,0,0,0,1.521-.913,1.981,1.981,0,0,0-.608-2.738c-.3-.3-20.989-14.905-36.2-32.244a89.13,89.13,0,0,0,40.761,10.342c3.042,0,6.388-.3,9.734-.608a1.85,1.85,0,0,0-.608-3.65c-31.331,3.954-55.058-13.384-56.883-14.6-.913-1.217-1.825-2.738-2.738-3.954h0c-3.65-6.084-6.084-11.863-6.388-17.339a86.931,86.931,0,0,0,8.213-9.43,2.265,2.265,0,0,0-.3-2.738,2.265,2.265,0,0,0-2.738.3c-7.909,11.255-17.339,17.643-27.377,18.555-16.122,1.521-29.2-10.647-29.2-10.647a2.281,2.281,0,0,0-2.738,0,2.281,2.281,0,0,0,0,2.738c.608.608,12.776,11.863,28.9,11.863a12.478,12.478,0,0,0,3.346-.3c6.692-.608,12.776-3.346,18.555-7.6.608,4.867,2.738,9.734,5.475,14.6-18.555,10.951-36.5,13.688-53.537,8.821C79.087,52.583,61.444,17.3,61.14,16.689a1.838,1.838,0,1,0-3.346,1.521,107.868,107.868,0,0,0,9.126,14.6c-5.171,2.129-18.555,6.388-29.2-5.475a1.948,1.948,0,0,0-3.042,2.433,25.406,25.406,0,0,0,20.076,9.126c6.388,0,11.559-2.129,14.3-3.042a105.754,105.754,0,0,0,7.909,9.126c-7.3,5.171-35.894,20.38-54.449-1.521a1.925,1.925,0,0,0-2.738-.3,1.968,1.968,0,0,0-.3,2.738c8.213,9.43,17.947,12.776,27.377,12.776,14.905,0,28.9-7.909,33.156-10.647a102.126,102.126,0,0,0,8.821,7.3,32.085,32.085,0,0,0-5.78,1.521h0C56.882,64.751,38.935,88.477,38.326,89.39a2.265,2.265,0,0,0,.3,2.738c.3.3.608.3,1.217.3a1.673,1.673,0,0,0,1.521-.913A95.448,95.448,0,0,1,51.1,80.872c-.913,5.78-1.521,13.993,1.217,17.643a1.673,1.673,0,0,0,1.521.913,1.829,1.829,0,0,0,1.217-.3,1.925,1.925,0,0,0,.3-2.738c-2.129-3.042-1.217-13.384.3-19.468a68.925,68.925,0,0,1,8.517-6.388c-.608,4.867-1.217,13.384.913,20.685a1.928,1.928,0,0,0,1.825,1.521h.608A1.923,1.923,0,0,0,68.745,90.3c-2.433-8.517-.913-19.468-.3-22.206a61.688,61.688,0,0,1,12.776-6.084c-2.433,7.909-6.692,27.073,3.042,42.282a1.673,1.673,0,0,0,1.521.913,1.117,1.117,0,0,0,.913-.3,1.981,1.981,0,0,0,.608-2.738c-9.734-15.818-3.346-37.111-1.825-41.674a70.735,70.735,0,0,1,8.517-1.521,70.579,70.579,0,0,0,16.122,7.3A56.868,56.868,0,0,0,127.453,68.7q19.164,0,39.24-11.863a97.328,97.328,0,0,0,10.038,12.776c-3.042,7-20.989,43.8-39.544,36.2a1.838,1.838,0,1,0-1.521,3.346,17.339,17.339,0,0,0,6.692,1.217c17.947,0,32.852-28.9,37.111-38.023A151.938,151.938,0,0,0,191.94,84.219c0,4.259-1.521,25.247-13.688,36.807-6.084,5.78-13.688,8.213-23.118,7.909a1.983,1.983,0,1,0-.3,3.954h2.433c9.43,0,17.339-3.042,23.727-8.821,11.559-10.951,13.993-28.594,14.6-36.5,4.259,3.65,8.213,6.692,10.951,9.126a44.279,44.279,0,0,0-.608,24.335c-.608,1.217-1.217,3.042-2.129,5.475-1.825,4.563-4.867,11.863-7.909,19.772a142.646,142.646,0,0,1-17.339-2.129,21.979,21.979,0,0,0-16.73,3.346c-.913.608-.608,1.825.3,1.825,4.563.3,14.3,1.521,20.38,4.259a17.959,17.959,0,0,0,9.734,1.521A371.61,371.61,0,0,0,180.077,191.9c-6.692,24.335-27.985,52.624-44.715,65.7-.608.608-1.521,1.217-2.129,1.825h0a45.832,45.832,0,0,0-6.388,7c-.3,0-.3.3-.608.608-1.217,1.521-3.042,0-3.346-.3-1.217-.608-2.434-.608-3.042.3a1.925,1.925,0,0,0,.3,2.738,9.515,9.515,0,0,0,3.042,1.521c-.3.3-.3.608-.608.913a26.315,26.315,0,0,1-2.129,3.042c-2.738-.913-2.738-5.475-2.738-5.78a2.609,2.609,0,0,0-1.825-2.129,2.278,2.278,0,0,0-2.129,1.825c0,2.434.608,7,3.954,8.821-.3.3-.913.608-1.217.913a26.755,26.755,0,0,0-3.042,1.825c-1.217-3.346-3.954-10.951-2.738-17.947a1.85,1.85,0,0,0-3.65-.608c-1.521,8.213,1.521,16.73,3.042,20.076-4.563,2.129-7.909,2.738-12.167,2.129,1.521-4.259,3.65-13.384.608-22.814a1.924,1.924,0,0,0-3.65,1.217c3.042,8.821.3,17.643-.608,20.989a49.419,49.419,0,0,1-5.78-1.217h0c0-2.738.3-7.909,2.433-9.43a1.948,1.948,0,1,0-2.433-3.042c-3.042,2.738-3.65,8.213-3.65,11.559-.913-.3-2.129-.3-3.042-.608-.3-4.867,3.954-9.734,3.954-9.734a1.936,1.936,0,0,0-2.738-2.738c-.3.3-5.171,5.475-5.171,11.559h0a31.209,31.209,0,0,1-4.259-1.217C73,276.769,76.654,272.51,80,269.772a1.948,1.948,0,1,0-2.433-3.042c-1.217,1.217-6.388,5.475-7.6,10.038l-3.65-2.738,8.821-6.692A1.948,1.948,0,0,0,72.7,264.3l-9.43,7.3-3.042-3.042a15.587,15.587,0,0,0,9.43-8.213,1.924,1.924,0,1,0-3.65-1.217,11.72,11.72,0,0,1-8.517,6.388,44.714,44.714,0,0,1-3.042-3.954c7-.608,11.863-6.388,12.167-6.692a1.948,1.948,0,0,0-3.042-2.434S58.4,259.126,51.71,257.6c-.913-1.521-2.129-3.042-3.042-4.563a22.072,22.072,0,0,0,12.776-5.475,1.936,1.936,0,1,0-2.738-2.738,17.579,17.579,0,0,1-12.472,4.259c-1.521-2.433-2.738-4.867-4.259-7a20.821,20.821,0,0,0,8.213,1.521,29.484,29.484,0,0,0,7-.913,1.924,1.924,0,0,0-1.217-3.65A18.068,18.068,0,0,1,38.326,235.7c-4.259-7.909-6.692-13.688-6.692-13.688a1.838,1.838,0,1,0-3.346,1.521c.913,1.825,15.818,35.286,33.461,52.016h0a43.592,43.592,0,0,0,9.126,6.692h.3a22.243,22.243,0,0,0,5.78,2.129c4.259.608,7.909,1.521,10.951,2.129,5.171.913,9.126,1.825,12.776,1.825,3.954,0,7.909-.913,13.08-3.65h0c1.521-.913,3.042-1.825,4.867-2.738,2.433-1.521,4.563-4.563,7-8.213a71.27,71.27,0,0,1,6.084-8.213l-1.825,32.852a6.177,6.177,0,0,1-3.346,5.171c-7.3,3.65-23.118,9.734-47.149,11.863-27.377,2.434-57.8-46.845-66.617-62.054a12.663,12.663,0,0,1-.913-9.43c3.346-9.734,10.647-38.936,13.993-79.393h0c1.521-7.3,6.388-27.073,11.863-31.027a1.948,1.948,0,1,0-2.433-3.042c-3.346,2.433-6.084,8.213-8.213,14.6.3-7.909.608-16.122.608-24.335,4.259-6.388,10.038-12.776,16.73-16.73a1.983,1.983,0,1,0-2.129-3.346,32.748,32.748,0,0,0-7.3,5.475c-17.947,2.433-27.377-7.3-27.681-7.6a1.705,1.705,0,0,0-2.738,0,1.705,1.705,0,0,0,0,2.738c.3.3,9.126,9.734,25.856,9.734h.913c-.913.913-1.521,1.825-2.433,2.738a36.633,36.633,0,0,1-22.51,2.738,2.069,2.069,0,0,0-2.433,1.217,2.069,2.069,0,0,0,1.217,2.434,37.655,37.655,0,0,0,8.213.913A41.091,41.091,0,0,0,24.638,119.5a123.513,123.513,0,0,0-11.559,22.51,2.069,2.069,0,0,0,1.217,2.434H14.9a2.054,2.054,0,0,0,1.825-1.217,129.259,129.259,0,0,1,7.3-15.513c-.913,59.621-11.559,103.728-15.514,115.9a14.866,14.866,0,0,0,1.217,12.472c11.255,19.468,39.848,63.879,67.834,63.879H80c24.639-2.129,41.065-8.821,48.67-12.472a9.36,9.36,0,0,0,5.475-8.517l1.825-37.111c.3-.3.913-.608,1.217-1.217,17.339-13.384,39.544-42.586,46.236-67.529,6.084-22.51,18.251-52.32,23.422-64.792,0-.3.3-.608.3-.913,1.217,3.954,3.042,7.909,4.563,11.559,0,7-1.521,24.031-7.3,28.594a1.925,1.925,0,0,0-.3,2.738,1.673,1.673,0,0,0,1.521.913,1.829,1.829,0,0,0,1.217-.3c6.084-4.563,8.213-17.034,8.821-24.943a105.76,105.76,0,0,0,7.6,10.951,2.324,2.324,0,0,0,1.521.608,1.829,1.829,0,0,0,1.217-.3,1.925,1.925,0,0,0,.3-2.738C226.009,153.573,202.283,125.284,209.583,99.124Z" transform="translate(7.987 32.037)" fill="#20212c"/><path d="M82.359,28.359a1.705,1.705,0,0,0,0,2.738c.3.3,20.685,22.51,20.38,53.233a1.963,1.963,0,0,0,1.825,1.825h0a1.963,1.963,0,0,0,1.825-1.825C107,51.782,86.01,29.272,85.1,28.359A1.705,1.705,0,0,0,82.359,28.359Z" transform="translate(166.846 56.565)" fill="#20212c"/><path d="M137.311,57.474c-.3,0-21.6-4.259-31.635-23.118C94.725,13.975,71,8.8,70.086,8.5a2.409,2.409,0,0,0-2.434,1.521,1.621,1.621,0,0,0,1.521,2.129,25.334,25.334,0,0,1,4.259,1.217c2.129,1.217,26.768,14.6,23.727,42.282a2.011,2.011,0,0,0,1.825,2.129h.3a1.753,1.753,0,0,0,1.825-1.825c1.825-15.209-4.563-26.768-11.255-34.373a44.943,44.943,0,0,1,12.776,14.3c10.951,20.38,33.461,24.943,34.373,24.943h.3a1.7,1.7,0,0,0,1.825-1.521A3.55,3.55,0,0,0,137.311,57.474Z" transform="translate(138.055 17.412)" fill="#20212c"/><path d="M85.189,42.051a1.923,1.923,0,0,0-1.217,2.433c9.126,33.765-5.78,46.541-6.084,46.845a1.925,1.925,0,0,0-.3,2.738c.3.608.913.608,1.521.608a1.829,1.829,0,0,0,1.217-.3c.608-.608,17.034-14.3,7.3-50.495C87.319,42.355,86.406,41.747,85.189,42.051Z" transform="translate(157.628 85.764)" fill="#20212c"/><path d="M83.789,34.523a1.925,1.925,0,0,0-.3,2.738c5.475,7.3-.3,21.9-.3,21.9A1.816,1.816,0,0,0,84.4,61.6h.608a2.054,2.054,0,0,0,1.825-1.217c.3-.608,6.388-16.73-.3-25.552A2.265,2.265,0,0,0,83.789,34.523Z" transform="translate(169.675 69.87)" fill="#20212c"/><path d="M31.687,20.026a1.948,1.948,0,0,0-2.433-3.042C-2.99,42.84.051,72.347.051,73.563a1.963,1.963,0,0,0,1.825,1.825h.3A1.786,1.786,0,0,0,3.7,73.259C4.006,72.955.964,44.361,31.687,20.026Z" transform="translate(0.025 33.871)" fill="#20212c"/><path d="M51.253,32.047a2.069,2.069,0,0,0,1.217,2.433h.608A2.054,2.054,0,0,0,54.9,33.264c.3-.913,7.3-20.38,35.59-22.51a2.034,2.034,0,0,0,1.825-2.129A2.034,2.034,0,0,0,90.189,6.8C59.466,9.538,51.557,31.135,51.253,32.047Z" transform="translate(104.567 13.941)" fill="#20212c"/><path d="M48.89,25.007c7.3,0,17.034-1.825,28.289-7-1.521,6.388-6.388,19.468-22.206,21.6a1.786,1.786,0,0,0-1.521,2.129,1.7,1.7,0,0,0,1.825,1.521h.3C76.876,40.52,80.83,20.444,81.743,15.881,86.61,12.84,92.085,9.189,98.169,4.626a1.925,1.925,0,0,0,.3-2.738,1.925,1.925,0,0,0-2.738-.3C64.1,26.832,40.373,20.748,38.244,19.227a2.27,2.27,0,0,0-2.738,0,2.27,2.27,0,0,0,0,2.738C37.027,23.182,41.59,25.007,48.89,25.007Z" transform="translate(71.644 2.426)" fill="#20212c"/><path d="M13.627,32.89a1.58,1.58,0,0,0,1.217-.608A118.24,118.24,0,0,1,41.612,13.118a29.714,29.714,0,0,0-8.821,22.814,1.963,1.963,0,0,0,1.825,1.825h0a2.034,2.034,0,0,0,1.825-2.129C35.224,13.422,58.951,6.121,62.3,5.209A60.468,60.468,0,0,1,77.2,3.992a2.61,2.61,0,0,0,2.129-1.825A1.658,1.658,0,0,0,77.811.038c-34.373-1.521-64.488,28.289-65.7,29.506a2.27,2.27,0,0,0,0,2.738A2.324,2.324,0,0,0,13.627,32.89Z" transform="translate(23.864 0.018)" fill="#20212c"/><path d="M38.125,79.81a1.983,1.983,0,1,0,.3,3.954c.3,0,4.259-.3,8.213,4.563.3.608.913.608,1.521.608a1.829,1.829,0,0,0,1.217-.3,1.925,1.925,0,0,0,.3-2.738C44.513,79.2,38.429,79.81,38.125,79.81Z" transform="translate(74.196 162.987)" fill="#20212c"/><path d="M45.294,125.824a2.742,2.742,0,0,0-1.521.3c-.608.3-.608.608-.913,1.217l-1.521,7.909a1.786,1.786,0,0,0,1.521,2.129h.3a1.7,1.7,0,0,0,1.825-1.521l1.217-6.084c3.954.608,12.472,1.217,15.209-4.867,2.129-4.259,1.521-8.821.913-13.993a54.4,54.4,0,0,1-.608-12.472c.913-10.647,7.909-33.156,7.909-33.461a1.924,1.924,0,1,0-3.65-1.217c-.3.913-7.3,23.118-8.213,34.373a85.767,85.767,0,0,0,.608,13.08c.608,4.867,1.217,8.821-.3,11.863C55.637,128.257,45.294,125.824,45.294,125.824Z" transform="translate(84.366 127.62)" fill="#20212c"/><path d="M40.851,75.359a1.705,1.705,0,0,0-2.738,0c-6.692,6.084-3.65,13.688-3.65,13.993a2.054,2.054,0,0,0,1.825,1.217H36.9a2.069,2.069,0,0,0,1.217-2.434c0-.3-2.129-5.78,2.433-10.038A1.715,1.715,0,0,0,40.851,75.359Z" transform="translate(69.037 152.533)" fill="#20212c"/><path d="M52.454,77.421A2.409,2.409,0,0,0,50.021,75.9,2.409,2.409,0,0,0,48.5,78.334c1.521,6.084,2.129,13.688.608,15.209a2.27,2.27,0,0,0,0,2.738,2.306,2.306,0,0,0,1.217.608,1.58,1.58,0,0,0,1.217-.608C55.8,92.326,53.063,79.854,52.454,77.421Z" transform="translate(99.107 155.034)" fill="#20212c"/><path d="M49.893,95.992a21.548,21.548,0,0,0,4.259-.3c.913-.3,1.825-1.217,1.521-2.129s-1.217-1.825-2.129-1.521c-7.6,1.521-14.905-2.434-14.905-2.434a1.838,1.838,0,0,0-1.521,3.346C36.813,92.95,42.592,95.992,49.893,95.992Z" transform="translate(73.38 182.395)" fill="#20212c"/><path d="M76.784,101.709a2.069,2.069,0,0,0-1.217,2.434,1.668,1.668,0,0,0,1.825,1.217H78c.3,0,3.042-.913,6.084-5.171a4.224,4.224,0,0,0,.608-3.346c-.3-1.217-1.217-1.825-2.433-2.434-3.954-1.217-9.43-3.65-11.559-4.563a5.087,5.087,0,0,0-3.65-.3,8.858,8.858,0,0,1-7.3-1.521,6.262,6.262,0,0,0-5.171-.608c-3.346,1.217-11.559,1.521-21.9,1.217A4.358,4.358,0,0,0,29.33,90.15a4.505,4.505,0,0,0-.608,3.954l1.825,5.171a1.924,1.924,0,0,0,3.65-1.217l-1.825-5.171-1.825.608,2.129-.913c6.388.3,17.947.608,23.422-1.217a2.011,2.011,0,0,1,1.825.3A13.82,13.82,0,0,0,67.962,93.8h1.217a114.773,114.773,0,0,0,11.559,4.563C78.3,101.1,76.784,101.709,76.784,101.709Z" transform="translate(58.352 177.894)" fill="#20212c"/><path d="M54.089,97.971a39.914,39.914,0,0,0,4.563.913h.913c.913-.3,1.825-1.217,1.521-2.129s-1.217-1.825-2.129-1.521a34.909,34.909,0,0,1-4.259-.608c-1.521-.3-3.346-.608-4.867-.913A134.691,134.691,0,0,0,34.925,92.8a1.825,1.825,0,0,0,0,3.65s7.6.3,14.6.913A7.975,7.975,0,0,1,54.089,97.971Z" transform="translate(67.662 189.541)" fill="#20212c"/><path d="M27.861,56.641c-.913.3-1.825,1.217-1.521,2.129s1.217,1.825,2.129,1.521a52.553,52.553,0,0,1,9.43-.3,5.139,5.139,0,0,0-.913,3.042,6.692,6.692,0,1,0,13.384,0v-.3a19.918,19.918,0,0,1,9.126,7.6,1.673,1.673,0,0,0,1.521.913,1.117,1.117,0,0,0,.913-.3,1.981,1.981,0,0,0,.608-2.738C52.8,52.382,28.774,56.337,27.861,56.641Z" transform="translate(53.738 114.368)" fill="#20212c"/><path d="M79.161,72.192a1.673,1.673,0,0,0,1.521-.913,2.265,2.265,0,0,0-.3-2.738,36.865,36.865,0,0,0-8.821-4.867h0a23.913,23.913,0,0,0-14.6-.3h0A19.794,19.794,0,0,0,52.089,65.5a1.948,1.948,0,1,0,2.434,3.042,16.8,16.8,0,0,1,3.65-1.521A6.862,6.862,0,0,0,64.865,72.5a6.51,6.51,0,0,0,6.388-5.171,36.584,36.584,0,0,1,7.6,3.954C78.553,72.192,78.857,72.192,79.161,72.192Z" transform="translate(104.948 127.41)" fill="#20212c"/><path d="M46.155,68.434h0a2.278,2.278,0,0,0,2.129-1.825,2.222,2.222,0,0,0-1.825-2.129A33.643,33.643,0,0,1,31.25,59.612a1.983,1.983,0,1,0-2.129,3.346A35.815,35.815,0,0,0,46.155,68.434Z" transform="translate(57.649 121.131)" fill="#20212c"/><path d="M55.21,65.677a1.838,1.838,0,0,0-1.521,3.346c.3,0,7.3,3.346,13.993,3.346h.913a1.825,1.825,0,0,0,0-3.65C62.511,69.023,55.21,65.677,55.21,65.677Z" transform="translate(107.606 133.926)" fill="#20212c"/><path d="M24.3,91.425a2.609,2.609,0,0,0,1.825,2.129h.3c7,0,11.559-7.3,11.863-7.6a1.983,1.983,0,0,0-3.346-2.129S30.992,89.9,26.125,89.9A1.523,1.523,0,0,0,24.3,91.425Z" transform="translate(49.694 169.319)" fill="#20212c"/><path d="M29.17,90.877a2.055,2.055,0,0,0,.608,3.954h.608c4.259-1.217,7.6-7.6,8.213-8.821a1.838,1.838,0,1,0-3.346-1.521C33.428,86.314,30.995,90.269,29.17,90.877Z" transform="translate(56.992 170.475)" fill="#20212c"/><path d="M37.645,84.517c-.913,2.434-3.346,6.084-5.475,7a2.069,2.069,0,0,0-1.217,2.434,1.668,1.668,0,0,0,1.825,1.217h.608c4.563-1.521,7.6-8.213,7.909-9.126a1.916,1.916,0,0,0-.913-2.434C39.166,83,37.949,83.3,37.645,84.517Z" transform="translate(63.117 170.144)" fill="#20212c"/><path d="M35.629,96.433h0c4.867,0,7.909-8.213,8.517-10.647A1.924,1.924,0,1,0,40.5,84.57c-1.521,4.563-3.954,8.213-4.867,7.909A2.222,2.222,0,0,0,33.5,94.3C33.8,95.521,34.413,96.433,35.629,96.433Z" transform="translate(68.479 170.09)" fill="#20212c"/><path d="M38.578,94.9h.608c3.346-1.217,4.563-7.6,4.867-9.43a1.85,1.85,0,0,0-3.65-.608c-.608,3.042-1.825,6.084-2.433,6.388a2.069,2.069,0,0,0-1.217,2.434A1.892,1.892,0,0,0,38.578,94.9Z" transform="translate(74.96 170.104)" fill="#20212c"/><path d="M47.277,85.277a1.916,1.916,0,0,0-2.433.913c-1.521,3.042-2.129,7,.913,8.517a1.117,1.117,0,0,0,.913.3,2.629,2.629,0,0,0,1.825-.913,1.531,1.531,0,0,0-.913-2.434,4.632,4.632,0,0,1,.913-3.65C48.494,86.8,48.19,85.581,47.277,85.277Z" transform="translate(89.075 173.947)" fill="#20212c"/><path d="M50.889,98.484a1.673,1.673,0,0,0,1.521-.913,1.981,1.981,0,0,0-.608-2.738c-2.129-1.217-2.129-6.084-2.129-7.6a1.983,1.983,0,0,0-3.954-.3c0,.913-.608,8.517,3.954,11.559Z" transform="translate(93.372 173.819)" fill="#20212c"/><path d="M52.361,86.585a1.925,1.925,0,0,0-2.738.3c-.3.3-2.738,3.65-.3,11.559a1.668,1.668,0,0,0,1.825,1.217h.608a2.069,2.069,0,0,0,1.217-2.434c-1.825-5.475-.3-7.6-.3-7.909A2.265,2.265,0,0,0,52.361,86.585Z" transform="translate(98.593 175.985)" fill="#20212c"/><path d="M28.99,97.8c-5.78-1.217-11.255-12.167-13.08-16.426a1.682,1.682,0,0,0-2.433-.913,1.682,1.682,0,0,0-.913,2.434c.608,1.825,7,16.73,15.818,18.555.608,0,1.217.3,1.825.3a9.66,9.66,0,0,0,6.084-2.434,1.948,1.948,0,1,0-2.433-3.042C32.032,97.5,30.511,98.107,28.99,97.8Z" transform="translate(25.231 163.854)" fill="#20212c"/><path d="M32.68,99.347C21.426,96.914,16.254,75.925,16.254,75.621A2.409,2.409,0,0,0,13.821,74.1,2.409,2.409,0,0,0,12.3,76.533c.3.913,6.084,23.422,19.468,26.464h.3a1.928,1.928,0,0,0,1.825-1.521C34.2,100.868,33.593,99.652,32.68,99.347Z" transform="translate(25.192 151.358)" fill="#20212c"/><path d="M12.756,74.7a2.011,2.011,0,0,0-2.129,1.825,34.726,34.726,0,0,0,1.217,10.342,1.668,1.668,0,0,0,1.825,1.217h.608a2.069,2.069,0,0,0,1.217-2.433,24.747,24.747,0,0,1-1.217-8.821A1.658,1.658,0,0,0,12.756,74.7Z" transform="translate(21.693 152.584)" fill="#20212c"/><path d="M37.47,112.325h.608a2.054,2.054,0,0,0,1.825-1.217c0-.3,1.521-5.171,0-10.038a1.924,1.924,0,1,0-3.65,1.217,15.028,15.028,0,0,1,0,7.909C35.949,110.8,36.557,112.021,37.47,112.325Z" transform="translate(73.939 203.781)" fill="#20212c"/><path d="M40.363,94.885a1.925,1.925,0,0,0-2.738.3c-1.825,2.434-1.825,7.3-1.825,8.213a1.963,1.963,0,0,0,1.825,1.825h0A1.963,1.963,0,0,0,39.45,103.4c0-1.825.3-4.867.913-5.78A1.92,1.92,0,0,0,40.363,94.885Z" transform="translate(73.175 192.932)" fill="#20212c"/><path d="M55.827,17.688c-10.342,5.475-27.073-5.475-27.377-5.475a1.983,1.983,0,1,0-2.129,3.346c.608.3,11.559,7.6,22.51,7.6a16.128,16.128,0,0,0,8.517-2.129A2.038,2.038,0,0,0,58.26,18.6,1.531,1.531,0,0,0,55.827,17.688Z" transform="translate(51.932 24.346)" fill="#20212c"/><path d="M40.459,78.773a2.324,2.324,0,0,0,1.521.608,1.58,1.58,0,0,0,1.217-.608c8.517-7.909,5.171-17.034,1.825-20.685a1.948,1.948,0,1,0-3.042,2.434c.608.913,6.388,7.909-1.521,15.514A1.705,1.705,0,0,0,40.459,78.773Z" transform="translate(81.292 117.179)" fill="#20212c"/></g><path d="M8.8,60.5" transform="translate(18.02 123.571)" fill="none" stroke="#0a94b8" stroke-linecap="round" stroke-linejoin="round" stroke-miterlimit="10" stroke-width="1.25"/></g></svg>