<svg xmlns="http://www.w3.org/2000/svg" width="85" height="138.326" viewBox="0 0 85 138.326"><g transform="translate(-0.003)"><g transform="translate(0.003 6.321)"><path d="M77.89,74.523c-12.034-.243-24.067-.122-36.1.122-11.791.243-23.581,1.216-35.372.122-3.89-.365-3.89,5.713,0,6.078,1.094.122,2.066.122,3.16.243-.851,1.58-.365,3.89,1.459,4.5a3.127,3.127,0,0,0-.122,1.823,3.018,3.018,0,0,0,3.768,2.066c1.823-.365,3.525-.486,5.348-.729a3.174,3.174,0,0,0,3.039-3.039H36.562c.972,4.984.243,10.453.122,15.437-.122,3.647,4.862,3.89,5.956.851.851-2.553,3.16-4.984,3.16-7.658a25.223,25.223,0,0,0-.365-5.227A2.887,2.887,0,0,0,47.5,86.192a.731.731,0,0,0-.122-.486c3.647,0,7.415-.122,11.061-.122v.365a3.009,3.009,0,0,0,3.039,3.039,59.2,59.2,0,0,0,6.685-.729,3.033,3.033,0,0,0,2.188-3.039h1.216c2.553-.122,3.4-2.8,2.674-4.619h3.4C81.779,80.723,81.779,74.645,77.89,74.523Z" transform="translate(0.75 9.712)" fill="#fcf4b4"/><path d="M73.9,10.184c-6.321-.122-12.52,0-18.841.122a2.837,2.837,0,0,0-3.647-2.188c-.851.243-1.823.365-2.674.608a2.855,2.855,0,0,0-2.917-2.8,2.619,2.619,0,0,0-2.431,1.337H42.056a2.92,2.92,0,0,0-5.713.851A2.37,2.37,0,0,0,35.371,8a2.592,2.592,0,0,0-1.459.365A4.319,4.319,0,0,0,32.7,8.117a2.62,2.62,0,0,0-3.525,1.7c-4.376-.243-8.752-.486-13.128-.365a46.539,46.539,0,0,0-5.713.365,4.5,4.5,0,0,0-2.188-.972,7.043,7.043,0,0,0-5.834,3.039C1.093,13.587.607,15.9.121,17.841c-.972,3.647,4.376,5.227,5.713,1.945a3.285,3.285,0,0,0,1.7-2.553C7.9,13.83,23.7,15.653,26.011,15.9A177.723,177.723,0,0,0,44,16.261c6.078,0,12.034-.122,18.111-.122,2.066,0,17.017-1.094,16.774,1.58-.365,3.89,5.713,3.89,6.078,0C85.572,11.278,79.008,10.184,73.9,10.184Z" transform="translate(-0.003 -5.2)" fill="#fcf4b4"/></g><g transform="translate(1.823)"><path d="M75.768,11.3H51.458l-.608-3.89a3.345,3.345,0,0,0-3.768-2.8l-1.094.243c-.122,0-.243,0-.243.122v-1.7A3.268,3.268,0,0,0,42.463,0h-.851A3.268,3.268,0,0,0,38.33,3.282V5.105c-.122,0-.122,0-.243-.122l-1.094-.243a2.977,2.977,0,0,0-2.431.608,3.225,3.225,0,0,0-1.337,2.188L32.5,11.3H8.064A6.537,6.537,0,0,0,1.5,17.868V58.345A1.148,1.148,0,0,0,2.716,59.56a1.148,1.148,0,0,0,1.216-1.216V17.99a4.1,4.1,0,0,1,4.133-4.133h67.7A4.1,4.1,0,0,1,79.9,17.99V87.761a4.1,4.1,0,0,1-4.133,4.133H8.064a4.1,4.1,0,0,1-4.133-4.133v-7.05a1.148,1.148,0,0,0-1.216-1.216A1.148,1.148,0,0,0,1.5,80.711v7.05a6.537,6.537,0,0,0,6.564,6.564H9.4a1.961,1.961,0,0,0,.365,1.094l1.216,1.7a4.685,4.685,0,0,0,3.89,2.066h.243L8.307,134.558a3.2,3.2,0,0,0,.729,2.553,3.06,3.06,0,0,0,2.431,1.094h1.216a3.121,3.121,0,0,0,3.039-2.553l.486-2.553a1.24,1.24,0,0,0-2.431-.486l-.486,2.553c-.122.365-.365.608-.608.608H11.467c-.243,0-.486-.122-.486-.243a.483.483,0,0,1-.122-.608l6.928-35.858h2.674L16.329,120.7a1.23,1.23,0,0,0,.972,1.459,1.261,1.261,0,0,0,1.459-.972l4.254-22.122H38.573v17.747a3.009,3.009,0,0,0,3.039,3.039h1.459a3.009,3.009,0,0,0,3.039-3.039V99.186H61.668l.486,2.188a1.24,1.24,0,0,0,2.431-.486l-.365-1.7h2.674l6.928,35.858a5.265,5.265,0,0,1-.122.608.631.631,0,0,1-.486.243H72a.77.77,0,0,1-.729-.608L65.679,106.48a1.24,1.24,0,0,0-2.431.486l5.591,28.808a3.121,3.121,0,0,0,3.039,2.553h1.216a3.06,3.06,0,0,0,2.431-1.094,2.841,2.841,0,0,0,.608-2.553L69.326,99.308h-.365a4.532,4.532,0,0,0,3.89-2.066l1.216-1.7a1.961,1.961,0,0,0,.365-1.094h1.337a6.537,6.537,0,0,0,6.564-6.564V17.99A6.563,6.563,0,0,0,75.768,11.3Zm-37.56,0H34.927l.608-3.4a.668.668,0,0,1,.365-.608c.243-.122.365-.243.608-.122l1.094.243a1.043,1.043,0,0,1,.729.851V11.3Zm4.984-3.039v3.16H40.64V3.282a.831.831,0,0,1,.851-.851h.851a.831.831,0,0,1,.851.851V8.266ZM45.623,11.3V8.266a.888.888,0,0,1,.729-.851l1.094-.243a.911.911,0,0,1,.608.122.668.668,0,0,1,.365.608l.608,3.4ZM43.314,116.933a.574.574,0,0,1-.608.608H41.247a.574.574,0,0,1-.608-.608V99.186h2.674ZM70.906,95.661a2.538,2.538,0,0,1-1.945.972H14.871a2.538,2.538,0,0,1-1.945-.972l-.972-1.337h59.8Z" transform="translate(-1.5)" fill="#20212c"/><path d="M2.716,60.152a1.148,1.148,0,0,0,1.216-1.216V52.616A1.148,1.148,0,0,0,2.716,51.4,1.148,1.148,0,0,0,1.5,52.616v6.321A1.148,1.148,0,0,0,2.716,60.152Z" transform="translate(-1.5 11.078)" fill="#20212c"/><path d="M14.349,101.7a1.333,1.333,0,0,0-1.459.972l-.486,2.431a1.23,1.23,0,0,0,.972,1.459h.243a1.184,1.184,0,0,0,1.216-.972l.486-2.431A1.176,1.176,0,0,0,14.349,101.7Z" transform="translate(0.845 21.915)" fill="#20212c"/></g></g></svg>