<svg xmlns="http://www.w3.org/2000/svg" width="115" height="107.196" viewBox="0 0 115 107.196"><g transform="translate(-0.1)"><g transform="translate(0.1 3.643)"><path d="M78.616,71.059c-3.375,1.125-6.751.338-10.126-.45-3.488-.788-5.063,4.613-1.463,5.4,4.388,1.013,8.776,1.913,13.164.45C83.454,75.334,81.991,69.934,78.616,71.059Z" transform="translate(8.017 5.181)" fill="#fcf4b4"/><path d="M103,47.767a51.957,51.957,0,0,0-9.338.45c-1.125.113-3.713.9-4.613-.338-.9-1.013-.113-2.7,1.125-3.488,3.038-2.025.225-6.863-2.813-4.838a9.712,9.712,0,0,0-4.388,8.213c-.9-2.138-1.688-4.275-2.25-5.738-1.238-3.375-6.638-1.913-5.4,1.463,1.913,5.175,3.938,11.476,8.438,15.076,4.275,3.375,8.438,2.25,12.264-.563a9.34,9.34,0,0,0,2.363-.675,2.4,2.4,0,0,0,.9-3.825,22.059,22.059,0,0,1,3.825-.113C106.6,53.73,106.6,48.1,103,47.767Zm-17.552,4.5a2.46,2.46,0,0,1,.563.338v.338A4.283,4.283,0,0,1,85.446,52.268Z" transform="translate(9.288 1.245)" fill="#fcf4b4"/><path d="M64.089,24.17c-2.025,0-4.5.338-6.413-.45-3.375-1.238-4.838,4.163-1.463,5.4,2.138.788,4.5.563,6.863.563h8.213c3.6,0,3.6-5.626,0-5.626C68.927,24.17,66.564,24.17,64.089,24.17Z" transform="translate(6.68 -0.698)" fill="#fcf4b4"/><path d="M68.09,20.438c.225.225.563.45.788.675l.338.338.225.225a.11.11,0,0,0,.113.113c.113.113.225.338.338.45a4,4,0,0,1,.45,1.013,2.776,2.776,0,0,0,3.825,1.013,2.878,2.878,0,0,0,1.013-3.825,12,12,0,0,0-3.038-4.05,3,3,0,0,0-2.025-.788,3.5,3.5,0,0,0-2.025.788C67.19,17.513,66.852,19.538,68.09,20.438Z" transform="translate(8.305 -1.691)" fill="#fcf4b4"/><path d="M13.1,11.126c3.6,0,3.6-5.626,0-5.626S9.5,11.126,13.1,11.126Z" transform="translate(1.189 -2.955)" fill="#fcf4b4"/><path d="M21.678,52.591a2.8,2.8,0,0,0,2.813-4.838L22.466,46.74a2.8,2.8,0,1,0-2.813,4.838Z" transform="translate(2.174 2.159)" fill="#fcf4b4"/><path d="M79.6,64c-3.6,0-3.6,5.626,0,5.626S83.2,64,79.6,64Z" transform="translate(9.508 4.364)" fill="#fcf4b4"/><path d="M39.381,32.708c.9-.338,2.475-1.125,3.488-.675a5.47,5.47,0,0,1,1.688,1.913,10.346,10.346,0,0,0,2.925,2.925A5.774,5.774,0,0,0,54.8,36.2c2.588-2.475-1.35-6.526-3.938-3.938-.225.225-4.275-4.388-4.95-4.838-2.588-1.688-5.4-1.125-8.213-.113C34.543,28.545,36.006,34.058,39.381,32.708Z" transform="translate(4.385 -0.347)" fill="#fcf4b4"/><path d="M98.1,78.125c-4.275,3.6-8.551,7.313-12.826,10.914s-7.988,7.876-13.839,8.438a59.913,59.913,0,0,1-13.5-.338c1.125-3.263,2.475-6.751,2.363-10.013-.113-3.375-2.363-6.526-3.375-9.676a49.951,49.951,0,0,0-2.138-6.976c-.788-1.688-2.475-3.488-2.925-5.288-1.238-4.838,2.363-7.426,2.363-11.926a1.915,1.915,0,0,0-.113-.788,15.756,15.756,0,0,1,1.8,1.125,10.106,10.106,0,0,0,3.938,2.025,1.561,1.561,0,0,0,1.013,0,1.427,1.427,0,0,0,.675.113c6.188.788,7.988,4.725,11.926,8.551,3.15,3.15,7.763,3.375,11.476,5.626,3.15,1.8,5.963-3.038,2.813-4.838-2.363-1.463-4.95-1.913-7.426-3.038-3.038-1.35-4.275-3.488-6.3-5.963-3.263-3.825-7.651-5.288-12.489-5.963h-.225a7.4,7.4,0,0,1-2.925-1.8,18.461,18.461,0,0,0-3.263-1.8c-2.588-1.35-4.275-3.938-5.738-6.413-1.913-3.15-6.751-.225-4.838,2.813a24.787,24.787,0,0,0,2.363,3.6c-2.475-.225-5.175-.113-7.313-.45A7.565,7.565,0,0,1,36.1,44.71a2.365,2.365,0,0,0,.225-3.15,57.039,57.039,0,0,1-4.5-8.1c-1.238-2.588-3.713-4.275-5.963-6.076a2.936,2.936,0,0,0-2.025-.675,11.614,11.614,0,0,1-.45-3.375A2.664,2.664,0,0,0,21.7,20.745v-.113h1.463c3.6-.225,3.6-5.851,0-5.626-.675,0-1.913.113-3.488.113a3.329,3.329,0,0,0-1.125-.225c-.225,0-.563.113-.788.113-3.713-.225-7.988-1.013-8.551-3.375.675-2.588-2.588-5.4-4.5-2.925-2.475,3.038-.113,7.538,2.925,9.338a20.525,20.525,0,0,0,8.438,2.475c.113.675.113,1.238.225,1.913a3.349,3.349,0,0,0,1.575,2.588c.563,7.876,6.751,12.489,10.463,19.127C30.028,47.073,30.815,50,34.3,51.123s7.426-.113,10.914.788c3.938,1.013,3.15,1.913,1.575,5.175a14.7,14.7,0,0,0-1.35,3.713c-.675,3.938,1.575,6.751,3.375,10.013,2.025,3.825,2.475,7.988,4.163,11.926,1.35,3.263,1.575,4.725.675,8.326-.338,1.575-.9,3.15-1.35,4.613A94.148,94.148,0,0,1,41.841,92.3c-4.275-1.688-8.776-2.363-13.164-3.938-4.613-1.688-7.763-6.076-10.463-9.9a56.143,56.143,0,0,1-4.725-7.876,31.62,31.62,0,0,0,3.263-.113c4.388-.563,8.438-2.588,12.489-4.275,3.263-1.35,1.8-6.863-1.463-5.4-3.938,1.688-8.213,3.938-12.6,4.275a22.059,22.059,0,0,1-3.825-.113A37.5,37.5,0,0,1,9.888,49.1c.45-3.6-5.175-3.6-5.626,0A39.772,39.772,0,0,0,5.275,64.174c-.788-.113-1.688-.225-2.475-.338-3.6-.45-3.6,5.175,0,5.626,1.463.113,2.925.338,4.388.563a50.44,50.44,0,0,0,6.3,11.251C16.3,85.1,19.452,89.6,23.615,92.077c2.925,1.8,6.413,2.475,9.788,3.263a2.52,2.52,0,0,0,.788,2.7,85.666,85.666,0,0,1-18.452-1.913,2.742,2.742,0,0,0-1.35,0,3.464,3.464,0,0,1,0-2.138c1.238-3.375-4.163-4.838-5.4-1.463-1.913,5.175,2.7,9.676,7.088,11.7,6.863,3.263,14.626,1.575,21.94,1.463,2.813,0,3.375-3.375,1.913-4.838a56.1,56.1,0,0,0,26.553,3.938,3.04,3.04,0,0,0,2.475-1.8c1.575-.113,3.15-.225,4.725-.45,5.288-.788,8.438-3.825,12.376-7.2,5.4-4.5,10.689-9.113,16.089-13.614C104.847,79.7,100.8,75.763,98.1,78.125Z" transform="translate(-0.1 -2.673)" fill="#fcf4b4"/><path d="M38.746,10.733c3.488,2.138,9.338,7.538,13.5,3.713,1.913-1.8,1.463-5.738,4.95-5.063,1.125.225,2.475,1.575,3.375,2.138a47.588,47.588,0,0,0,6.413,3.038c3.263,1.35,6.188-3.488,2.813-4.838C65.186,7.7,58.547,1.62,53.147,3.645c-2.363.9-2.588,2.25-3.825,4.05C48.2,9.383,49.1,9.721,46.846,9.158c-1.688-.338-3.825-2.363-5.4-3.263C38.521,3.983,35.708,8.821,38.746,10.733Z" transform="translate(4.571 -3.238)" fill="#fcf4b4"/><path d="M88.269,28.807c2.025,3.713,3.713,7.651,5.513,11.364,1.575,3.263,6.413.45,4.838-2.813-2.025-4.163-3.713-8.663-6.188-12.6-2.025-3.375-4.838-6.413-7.313-9.451-2.363-2.813-6.3,1.238-3.938,3.938C83.656,22.282,86.356,25.207,88.269,28.807Z" transform="translate(9.953 -1.847)" fill="#fcf4b4"/></g><g transform="translate(3.138)"><path d="M23.438,80.838a1.023,1.023,0,0,0,.9-.45,1.087,1.087,0,0,0-.113-1.575c-.9-.788-1.913-1.688-2.813-2.475a1.114,1.114,0,0,0-1.575,1.575A32.044,32.044,0,0,0,22.763,80.5.8.8,0,0,0,23.438,80.838Z" transform="translate(-0.711 9.508)" fill="#20212c"/><path d="M16.338,49.413a1.088,1.088,0,0,0,0,1.575,1.088,1.088,0,0,0,1.575,0A4.321,4.321,0,0,1,20.5,49.75a1.131,1.131,0,1,0-.225-2.25A6.869,6.869,0,0,0,16.338,49.413Z" transform="translate(-1.149 5.943)" fill="#20212c"/><path d="M74.927,22.208a1.17,1.17,0,0,0-1.463.675,3.192,3.192,0,0,1-3.038,2.025h-14.4a1.125,1.125,0,1,0,0,2.25H70.539A5.35,5.35,0,0,0,75.6,23.67,1.081,1.081,0,0,0,74.927,22.208Z" transform="translate(3.718 2.77)" fill="#20212c"/><path d="M65.038,23.438a1.063,1.063,0,0,0,1.125-1.125,3.265,3.265,0,0,1,3.263-3.263A2.988,2.988,0,0,1,71.9,20.288a1.117,1.117,0,0,0,1.688-1.463A5.517,5.517,0,0,0,63.8,22.313,1.31,1.31,0,0,0,65.038,23.438Z" transform="translate(4.831 2.102)" fill="#20212c"/><path d="M34.388,89.4H31.125a1.125,1.125,0,0,0,0,2.25h3.15A1.063,1.063,0,0,0,35.4,90.525,1.039,1.039,0,0,0,34.388,89.4Z" transform="translate(0.603 11.185)" fill="#20212c"/><path d="M29.664,90.651H17.851a4.5,4.5,0,1,1,0-9,2.626,2.626,0,0,1,1.8,4.5,1.114,1.114,0,0,0,1.575,1.575,4.936,4.936,0,0,0,1.463-3.488A4.8,4.8,0,0,0,17.851,79.4a6.751,6.751,0,1,0,0,13.5h11.7a1.063,1.063,0,0,0,1.125-1.125A1.039,1.039,0,0,0,29.664,90.651Z" transform="translate(-1.762 9.933)" fill="#20212c"/><path d="M112.385,53.668h-4.163V53.33c0-.788.113-1.575.113-2.475a51.7,51.7,0,0,0-4.275-20.477.11.11,0,0,0-.113-.113l-1.013-2.025c-.113-.225-.225-.338-.338-.563-.225-.563-.563-1.013-.788-1.575a6.28,6.28,0,0,0-.563-.9,9.9,9.9,0,0,1-.675-1.125,11.86,11.86,0,0,0-.788-1.238c-.113-.225-.338-.45-.45-.675-.338-.563-.788-1.013-1.125-1.575l-.225-.225a52.678,52.678,0,0,0-6.3-6.976l-.113-.113A50.671,50.671,0,0,0,57.368,0c-1.575,0-3.038.113-4.5.225H52.53c-.45,0-.9.113-1.35.113-.338,0-.788.113-1.125.113-.45.113-.788.113-1.238.225s-.9.113-1.35.225a3.285,3.285,0,0,1-1.013.225c-.563.113-1.013.225-1.575.338a7.17,7.17,0,0,1-.788.225A14.718,14.718,0,0,1,42.4,2.25c-.113,0-.338.113-.45.113-.675.225-1.35.45-2.138.675H39.7A49.964,49.964,0,0,0,20.577,15.526H12.138a3.488,3.488,0,0,1,0-6.976,2.025,2.025,0,0,1,0,4.05,1.125,1.125,0,0,0,0,2.25,4.275,4.275,0,0,0,0-8.551A5.787,5.787,0,0,0,6.4,12.151a5.69,5.69,0,0,0,5.738,5.738h6.413A51.087,51.087,0,0,0,6.4,50.967,52,52,0,0,0,8.313,64.806H3.925a1.125,1.125,0,1,0,0,2.25H8.988a54.6,54.6,0,0,0,6.188,12.6,1.139,1.139,0,1,0,1.913-1.238,51.3,51.3,0,0,1-5.738-11.364H22.714a6.77,6.77,0,0,0,6.751-6.751,6.955,6.955,0,0,0-2.475-5.288,1.117,1.117,0,1,0-1.463,1.688,4.726,4.726,0,0,1,1.688,3.488,4.514,4.514,0,0,1-4.5,4.5H10.676A47.147,47.147,0,0,1,8.651,50.967a47.947,47.947,0,0,1,10.914-30.6,10.939,10.939,0,0,1,.113,2.025c0,4.725,2.363,7.313,4.95,10.126,2.138,2.363,4.5,4.838,5.513,9.113,1.575,5.963,5.175,5.738,8.551,5.513,2.925-.225,5.963-.338,9.226,2.475,3.713,3.263,2.813,4.838,1.238,7.538-1.238,2.138-2.7,4.725-1.575,8.326.9,3.038,2.925,5.851,4.95,8.438,3.038,4.163,5.738,7.763,3.6,11.139-2.588,4.275-3.6,10.238-2.588,14.289A49.008,49.008,0,0,1,29.465,90.8a1.125,1.125,0,1,0-1.35,1.8A51.351,51.351,0,0,0,55,101.71h3.713a51.079,51.079,0,0,0,48.6-42.079v-.113c0-.225.113-.45.113-.675a4.873,4.873,0,0,1,.113-.563c.113-.563.113-1.125.225-1.8a1.427,1.427,0,0,1,.113-.675h4.388A1.063,1.063,0,0,0,113.4,54.68.9.9,0,0,0,112.385,53.668ZM93.484,25.09c-.563-.788-.45-.9,0-1.575.788-1.125,1.463-2.588-.563-4.95a3.9,3.9,0,0,1-.9-1.8,51.668,51.668,0,0,1,5.513,6.751l.113.113a10.272,10.272,0,0,1,.9,1.463,2.354,2.354,0,0,0,.45.675c.225.338.338.675.563,1.013s.45.788.675,1.125c.113.225.225.338.338.563.225.563.563,1.125.788,1.688a.11.11,0,0,0,.113.113,50.327,50.327,0,0,1,4.275,15.751v.338a12.228,12.228,0,0,1,.113,2.025c0,.788.113,1.575.113,2.475a15.08,15.08,0,0,1-.113,2.25v.45H99.784a2.588,2.588,0,1,1,0-5.175,1.368,1.368,0,0,1,1.35,1.35,1.125,1.125,0,1,0,2.25,0,3.554,3.554,0,0,0-3.6-3.6,4.838,4.838,0,1,0,0,9.676h1.463a4.8,4.8,0,0,0-2.138,1.575c-.563.563-1.913,0-3.038-.9C91.8,53.218,87.521,45,90.333,40.279,95.4,32.4,96.184,28.69,93.484,25.09ZM105.41,58.506l-1.238.338c-.113-1.125-.45-2.363-1.463-2.813-.112,0-.112,0-.225-.113h3.15v.225A16.785,16.785,0,0,1,105.41,58.506ZM58.155,86.3c2.925-4.725-.45-9.226-3.713-13.614-1.913-2.588-3.825-5.175-4.613-7.763-.788-2.7.225-4.613,1.35-6.638,1.575-2.813,3.375-5.963-1.688-10.351-3.938-3.375-7.763-3.15-10.8-3.038-3.375.225-5.175.338-6.3-3.938-1.238-4.725-3.825-7.538-6.076-10.013-2.475-2.7-4.388-4.725-4.388-8.663a18.585,18.585,0,0,0-.563-4.163l.225-.225h6.188a1.125,1.125,0,0,0,0-2.25H23.839l.675-.675.225-.225a47.836,47.836,0,0,1,5.288-4.163c.113,0,.113-.113.225-.113A56.19,56.19,0,0,1,35.878,7.2a2.459,2.459,0,0,0,.563-.338c.563-.225,1.125-.563,1.688-.788a4,4,0,0,0,1.013-.45c.788-.338,1.575-.563,2.363-.9.563-.225,1.125-.338,1.688-.563.113,0,.338-.113.45-.113a2.828,2.828,0,0,0-1.463,2.475c.113,1.013.9,2.138,4.05,2.25,1.688.113,3.6,1.35,5.175,2.475,1.688,1.125,3.038,2.025,4.163,1.35s1.013-2.363.788-4.05c-.45-3.15.113-3.938.338-4.05.563-.45,2.475.225,3.825.788A10.25,10.25,0,0,0,64.231,6.3c1.575,0,2.588.9,4.05,2.25a22.48,22.48,0,0,0,4.838,3.6,4.452,4.452,0,0,1,.788.563c-.338,1.238-6.863,3.488-9.338,4.275l-.338.113c-4.838,1.575-5.513,3.488-5.963,5.851a3.674,3.674,0,0,1-2.25,3.263c-4.725,2.7-3.038,6.526-2.025,8.663a2.768,2.768,0,0,1,.45,1.238c-.45-.113-1.35-.9-2.363-2.925-2.025-4.388-5.738-3.713-9.338-2.925-.563.113-1.238.225-1.913.338-2.475.45-4.163,2.7-4.388,5.738-.225,2.7.9,6.076,3.713,6.863,2.475.788,3.375,0,3.938-1.463.225-.675.45-1.238,2.025-1.463h.338c-.225,1.463-.788,4.388,3.263,7.313a16.364,16.364,0,0,1,2.025,1.8A10.784,10.784,0,0,0,55.455,52.2a31.784,31.784,0,0,0,4.5,1.238,37.04,37.04,0,0,1,7.876,2.25c4.163,1.8,4.275,3.263,4.388,4.725.113,2.475,1.013,3.825,5.4,4.388,2.925.338,6.076.788,6.638,1.8.45.9-.563,3.375-1.575,5.626a16.892,16.892,0,0,1-5.063,6.3A15.632,15.632,0,0,0,75.257,80.9h-.338a1.063,1.063,0,0,0-1.125,1.125,1.389,1.389,0,0,0,.45.9c-.113.338-.113.675-.225,1.013-.338,2.7-1.463,3.375-5.851,5.626-1.35.675-2.813,1.463-4.613,2.475-4.725,2.7-6.076,5.513-6.413,7.538H55.455A21.041,21.041,0,0,1,58.155,86.3Zm1.913,13.164c.338-1.35,1.463-3.375,5.175-5.4,1.688-1.013,3.15-1.688,4.5-2.363,4.275-2.138,6.638-3.375,7.088-7.426a3.329,3.329,0,0,1,.225-1.125H88.083a4.95,4.95,0,0,0,0-9.9,1.125,1.125,0,0,0,0,2.25,2.7,2.7,0,0,1,0,5.4H78.745c.225-.225.563-.45.788-.675a20.6,20.6,0,0,0,5.626-7.088c1.575-3.263,2.588-5.851,1.575-7.651s-3.488-2.363-8.438-2.925c-3.375-.338-3.375-1.013-3.488-2.25-.113-2.25-.675-4.5-5.738-6.638A38.193,38.193,0,0,0,60.743,51.3,27.329,27.329,0,0,1,56.58,50.18a8.177,8.177,0,0,1-2.925-2.25,14.935,14.935,0,0,0-2.363-2.138c-2.925-2.138-2.588-3.713-2.363-5.063.113-.675.338-1.575-.338-2.138-.563-.563-1.463-.563-2.588-.45a4.42,4.42,0,0,0-3.825,2.925c0,.113-.113.225-.113.338a2.6,2.6,0,0,1-1.013-.225c-1.575-.45-2.25-2.7-2.138-4.613.113-1.575.788-3.375,2.475-3.713.675-.113,1.35-.225,1.913-.338,3.825-.788,5.513-1.013,6.863,1.688,1.688,3.488,3.713,4.5,5.063,4.163a2.073,2.073,0,0,0,1.575-2.138,6.351,6.351,0,0,0-.675-2.25C55,31.5,54.442,29.815,57.255,28.24A6.357,6.357,0,0,0,60.63,23.4c.225-1.575.45-2.813,4.388-4.05l.338-.113c6.188-2.025,10.576-3.713,10.8-6.188q.169-1.688-2.025-2.7a17.789,17.789,0,0,1-4.388-3.263c-1.688-1.463-3.15-2.813-5.626-2.813a8.866,8.866,0,0,1-2.813-.9c-2.025-.788-4.388-1.8-6.076-.45C54.1,3.938,53.655,5.851,54.1,9a9.9,9.9,0,0,1,.113,1.575,12.36,12.36,0,0,1-1.575-1.013c-1.8-1.238-3.938-2.7-6.3-2.813a4.014,4.014,0,0,1-1.8-.338c.45-.45,2.025-1.575,5.963-2.475A5.235,5.235,0,0,0,53.43,2.363c1.35,0,2.588-.113,3.938-.113a48.479,48.479,0,0,1,32.4,12.376,6.352,6.352,0,0,0,1.463,5.4c1.013,1.238.788,1.463.338,2.25a3.032,3.032,0,0,0,.113,4.163c1.688,2.363,1.688,4.95-3.038,12.714-3.713,5.963,1.238,15.414,6.3,19.239,3.488,2.588,5.288,1.238,5.963.563.45-.45.788-.675.9-.788a5.155,5.155,0,0,1,.113,1.913,1.278,1.278,0,0,0,.338.9.949.949,0,0,0,.788.225h.225l1.688-.338A48.649,48.649,0,0,1,60.068,99.459Z" transform="translate(-2.8 0)" fill="#20212c"/></g></g></svg>