<svg xmlns="http://www.w3.org/2000/svg" width="113.991" height="113.33" viewBox="0 0 113.991 113.33"><g transform="translate(0.01)"><path d="M113.6,60.5c-.8-3.2-2.9-5.5-4.7-8.1s-6.2-.1-4.3,2.5a34.756,34.756,0,0,1,3.6,5.5,2.323,2.323,0,0,0-.9,1.9,21.115,21.115,0,0,0,.2,2.6,88.167,88.167,0,0,1-12,8.8c-3,1-6.1,1.8-8.7,2.7-7.9,2.7-15.9,4.9-24.2,3.1h-.4c-.2-8.8-.5-17.3.5-26.1.6-5,.9-12.1,6.5-13.8,3.8-1.2,8-1.7,11.9-2.9A112.075,112.075,0,0,0,93.7,32a52,52,0,0,0,9-2.6c1.3,1.2,2.6,2.3,3.8,3.5a2.475,2.475,0,0,0,3.5-3.5,17.7,17.7,0,0,1-2.4-3.4,2.456,2.456,0,0,0-.4-2.9,4.179,4.179,0,0,0-2.4-1.4,2.619,2.619,0,0,0-2.1.4H102a119.228,119.228,0,0,0-34.4,12,2.047,2.047,0,0,0-.8.8A8.157,8.157,0,0,0,61.9,38c-2.6,3.7-3.3,8.6-3.9,13a1.578,1.578,0,0,0-.8-.5C49,46.9,40.8,43.2,32.5,40a98.777,98.777,0,0,0-14-4.4c-3.6-.8-11.2-.6-13.7-4-1.9-2.5-6.3-.1-4.3,2.5,2.2,2.9,4.8,4,8.3,4.7,5.2,1,10.2,1.9,15.3,3.4,10.5,3.3,20.5,8.1,30.6,12.4a2.716,2.716,0,0,0,2.9-.5A129.711,129.711,0,0,0,56.7,68c.1,5.8.7,11.5.5,17.3-.3,6.4-1.4,12.7.1,18.5-6.9-2.6-13.4-6.9-19.9-10.3C29.7,89.4,22,85.4,14.3,81.3c-2.8-1.5-5.4,2.8-2.5,4.3,8.3,4.4,16.6,8.7,24.8,13.1,7.1,3.7,14.2,8.4,21.9,10.8a2.318,2.318,0,0,0,1.1,2c6.3,4.5,14.7-.2,19.9-4.4,1.8-1.4,3.3-3.1,4.9-4.6a20.29,20.29,0,0,1,2.6-1.1c6.5-2.8,12.5-6.1,17.2-11.5,1.8-2.1-.5-5.4-3-3.9-6.1,3.4-13,6.4-18.3,11.1-.4.4-.9.8-1.4,1.3a155.355,155.355,0,0,0-17.1,9.1c-4.6-6-2.9-14.7-2.2-22.3,7.4,3.3,16.3,4.6,23.7.5,4.1-2.3,8-5.1,11.9-7.8,4.9-1.7,9.8-3.8,12.7-7.9a2.105,2.105,0,0,0,2.5-1.2A13.761,13.761,0,0,0,113.6,60.5Z" fill="#fcf4b4"/><path d="M80.2,19.4a9.672,9.672,0,0,1-3.5,2.3,2.387,2.387,0,0,0-2.5.5c-1.3,1.1-1.8,1.4-2.4,1.2a3.465,3.465,0,0,0,.8-1.6A8.23,8.23,0,0,0,71,15.7c-1.2-1.7-3-2.7-4.6-4.1a2.574,2.574,0,0,0-3.2-.2,17.316,17.316,0,0,0-5-3.9,2.375,2.375,0,0,0-2.7.1c-1.2-.4-2.5-.7-3.7-1a2.492,2.492,0,0,0-1.7.3,7.572,7.572,0,0,0-.9-1.8,2.5,2.5,0,0,0-4.5.6,2.132,2.132,0,0,0-1.1,1c-.1.2-.1.3-.2.4a2.454,2.454,0,0,0-1.7,1.1c-.1.2-.3.4-.4.6a1.955,1.955,0,0,0-.8,1.3c-.3.5-.6,1-1,1.6-.8-.5-1.8-.6-3.5.1a2.378,2.378,0,0,0-1.1,2.8,2.922,2.922,0,0,0,3.3,2.5,3.915,3.915,0,0,0,1,.8,5.036,5.036,0,0,0,1.3.9,2.965,2.965,0,0,0,2.6,0,2.41,2.41,0,0,0,1.8-.7,10.394,10.394,0,0,0,2.3-3.7,4.837,4.837,0,0,0,4.3,1.1A4.448,4.448,0,0,0,54,14.1c2,1.1,4,2.2,6.1,3.2a2,2,0,0,0,1.3.2c.2.4.3.8.5,1.2a2.382,2.382,0,0,0,0,3.4,11.92,11.92,0,0,1,1.5,1.8,7.282,7.282,0,0,0,1.9,2.9,2.334,2.334,0,0,0,3.1.3A15.079,15.079,0,0,0,71,28.3a5.15,5.15,0,0,0,5.2-1.2,16.874,16.874,0,0,0,7.7-4.3C86.1,20.8,82.5,17.2,80.2,19.4Z" fill="#fcf4b4"/><path d="M49,87.4a19.152,19.152,0,0,0-7.6-6.2c-3-1.3-6.7-.7-7,3.1-.2,2.7,3.3,3.1,4.5,1.3h.2l.6.3A11.782,11.782,0,0,1,41.6,87a13.76,13.76,0,0,1,3,2.9C46.6,92.4,50.9,89.9,49,87.4Z" fill="#fcf4b4"/><path d="M51.2,81.6a11.493,11.493,0,0,0-2.8-3,2.463,2.463,0,0,0,1.3-4.2c-.4-.4-1-.9-1.5-1.3a2.127,2.127,0,0,0,1.1-3.4c-3.2-4.2-9.2-6-13.8-8.3-1.6-.8-3.9.1-3.8,2.2,0,.5.1.9.1,1.4a2.635,2.635,0,0,0,3.9,2.1,2.506,2.506,0,0,1,.7.4,6.685,6.685,0,0,0-3.9,1.6c-2.4,2.2,1.2,5.7,3.5,3.5,1.1-1,4.5,1.3,5.4,1.8a21.956,21.956,0,0,1,2.5,1.7,18.029,18.029,0,0,0-2.1-.8c-3.4-1.3-7.1-2.2-9.3,1.4-1.8,2.7,2.6,5.2,4.3,2.5.5-.8,4.7,1.3,5.3,1.6A13.269,13.269,0,0,1,46,83.2a2.207,2.207,0,0,0,1.7,2c.2.1.4.1.6.2C50.4,85.9,52.4,83.5,51.2,81.6Z" fill="#fcf4b4"/><path d="M27.5,78.4c-.5-1.6-2-3.1-3.7-4.4a2.49,2.49,0,0,0,2.1-3.7,11.157,11.157,0,0,0-2.7-3,2.71,2.71,0,0,0,.1-4.4,12.132,12.132,0,0,1-1.4-1,2.557,2.557,0,0,0,3-2.4c.1-2.1-1.6-3-3.1-4.1A30.841,30.841,0,0,0,16,51.9c-3.7-1.6-7.5-1.1-9.2,2.8-.9,2.2,1.6,3.5,3.4,2.8a10.4,10.4,0,0,0-2.1,2.7c-1.6,2.8,2.7,5.3,4.3,2.5a8.794,8.794,0,0,1,.6-1h0a18.824,18.824,0,0,0,2.3,1.6l2.5,1.8a20.666,20.666,0,0,0-7,.4c-2.6.6-2.1,4.2,0,4.8a11.369,11.369,0,0,0-3.2,1.8c-2.5,2.1,1.1,5.6,3.5,3.5,2.1-1.7,4.7-.8,6.8.4.8.5,3.9,2.3,4.6,3.3a2.653,2.653,0,0,0,2.4,2.1H25A2.388,2.388,0,0,0,27.5,78.4ZM14,56.7a3.474,3.474,0,0,0-3,.2,2.177,2.177,0,0,0,.5-.8c.5-1.3,6.3,2.6,8.3,4.2,0,.1.1.2.1.4l-1.4-1A19.623,19.623,0,0,0,14,56.7ZM15.6,70c2.1,0,4.2.5,5.5,2.2a18.193,18.193,0,0,0-2.8-1.4A9.239,9.239,0,0,0,15.6,70Z" fill="#fcf4b4"/><path d="M57.3,88a.945.945,0,0,0-1,1v3.6a1,1,0,0,0,2,0V89A1,1,0,0,0,57.3,88Z" fill="#20212c"/><path d="M61.8,33.8c4.5,0,9.3-1.2,9.3-3.9S66.3,26,61.8,26s-9.3,1.2-9.3,3.9S57.4,33.8,61.8,33.8Zm0-5.9c4.8,0,7.3,1.4,7.3,1.9s-2.5,1.9-7.3,1.9-7.3-1.4-7.3-1.9S57,27.9,61.8,27.9Z" fill="#20212c"/><path d="M23.4,73c-.3-.2-7-4.1-8.9-4.8a2.154,2.154,0,0,0-2,.2,3.668,3.668,0,0,0-1.4,2.8,1.172,1.172,0,0,0,.9,1.1c.5.1,1-.4,1.1-.9a2.226,2.226,0,0,1,.5-1.3h.3a82.223,82.223,0,0,1,8.5,4.6,1.616,1.616,0,0,1,.6,1.7,1.04,1.04,0,0,0,.6,1.3c.1,0,.2.1.4.1a.875.875,0,0,0,.9-.6A3.978,3.978,0,0,0,23.4,73Z" fill="#20212c"/><path d="M12.3,65.8a1.9,1.9,0,0,1,.5-1.3h.3a82.222,82.222,0,0,1,8.5,4.6,1.616,1.616,0,0,1,.6,1.7,1.04,1.04,0,0,0,.6,1.3c.1,0,.2.1.4.1a.875.875,0,0,0,.9-.6,3.5,3.5,0,0,0-1.4-4.1c-.3-.2-7-4.1-8.9-4.8a2.154,2.154,0,0,0-2,.2,3.668,3.668,0,0,0-1.4,2.8,1.088,1.088,0,0,0,.9,1.1A1.166,1.166,0,0,0,12.3,65.8Z" fill="#20212c"/><path d="M11.8,59.9a1.9,1.9,0,0,1,.5-1.3h.3a80.822,80.822,0,0,1,8.5,4.6,1.607,1.607,0,0,1,.6,1.8,1.04,1.04,0,0,0,.6,1.3c.1,0,.2.1.4.1a.875.875,0,0,0,.9-.6,3.5,3.5,0,0,0-1.4-4.1,5.2,5.2,0,0,1-.5-.3h.1a.875.875,0,0,0,.9-.6,3.5,3.5,0,0,0-1.4-4.1c-.3-.2-7-4.1-8.9-4.8a2.154,2.154,0,0,0-2,.2C9.2,52.6,9,54.3,9,54.6a1.088,1.088,0,0,0,.9,1.1,1.172,1.172,0,0,0,1.1-.9,1.9,1.9,0,0,1,.5-1.3h.3a82.222,82.222,0,0,1,8.5,4.6,1.616,1.616,0,0,1,.6,1.7,1.232,1.232,0,0,0,.2,1c-2.1-1.2-6.3-3.6-7.7-4.1a2.154,2.154,0,0,0-2,.2A3.668,3.668,0,0,0,10,59.7a1.088,1.088,0,0,0,.9,1.1A.967.967,0,0,0,11.8,59.9Z" fill="#20212c"/><path d="M47,85.2c-.3-.2-7-4.1-8.9-4.8a2.154,2.154,0,0,0-2,.2,3.668,3.668,0,0,0-1.4,2.8,1.088,1.088,0,0,0,.9,1.1,1.172,1.172,0,0,0,1.1-.9,1.9,1.9,0,0,1,.5-1.3h.3A82.222,82.222,0,0,1,46,86.9a1.616,1.616,0,0,1,.6,1.7,1.04,1.04,0,0,0,.6,1.3c.1,0,.2.1.4.1a.875.875,0,0,0,.9-.6A3.753,3.753,0,0,0,47,85.2Z" fill="#20212c"/><path d="M48.4,80c-1-.6-9.4-5.6-11.4-6.2a2.154,2.154,0,0,0-2,.2,3.668,3.668,0,0,0-1.4,2.8,1,1,0,1,0,2,.2,1.9,1.9,0,0,1,.5-1.3h.3c1.5.5,8.4,4.6,10.9,6a1.607,1.607,0,0,1,.6,1.8,1.04,1.04,0,0,0,.6,1.3c.1,0,.2.1.4.1a.875.875,0,0,0,.9-.6A3.74,3.74,0,0,0,48.4,80Z" fill="#20212c"/><path d="M34.4,71.6a1.172,1.172,0,0,0,1.1-.9,1.9,1.9,0,0,1,.5-1.3h.3c1.5.5,8.3,4.5,11,6a1.616,1.616,0,0,1,.6,1.7,1.04,1.04,0,0,0,.6,1.3c.1,0,.2.1.4.1a.875.875,0,0,0,.9-.6,3.5,3.5,0,0,0-1.4-4.1c-1-.6-9.4-5.6-11.4-6.2a2.154,2.154,0,0,0-2,.2,3.668,3.668,0,0,0-1.4,2.8C33.4,71,33.8,71.5,34.4,71.6Z" fill="#20212c"/><path d="M34.4,65a1.9,1.9,0,0,1,.5-1.3h.3c1.5.5,8.3,4.5,11,6a1.616,1.616,0,0,1,.6,1.7,1.04,1.04,0,0,0,.6,1.3c.1,0,.2.1.4.1a.875.875,0,0,0,.9-.6,3.5,3.5,0,0,0-1.4-4.1c-1-.6-9.4-5.6-11.4-6.2a2.154,2.154,0,0,0-2,.2,3.668,3.668,0,0,0-1.4,2.8,1.088,1.088,0,0,0,.9,1.1A1,1,0,0,0,34.4,65Z" fill="#20212c"/><path d="M107.8,56.5l2-25.2a.9.9,0,0,0-.1-.5l-4.3-10.1a.1.1,0,0,0-.1-.1.215.215,0,0,0-.2-.2l-.1-.1c-.1,0-.1-.1-.2-.1h-.1L76.9,12.5a2.871,2.871,0,0,0-.8-1.3L74.2,9.3a3.152,3.152,0,0,0-1.7-.9L65.7,7a2.437,2.437,0,0,0-1.2,0,5.6,5.6,0,0,0-3,1.5L48.4,4.8A4.415,4.415,0,0,0,45.1,2L41,.5A8.173,8.173,0,0,0,38.1,0c-3,0-4.6,3.4-4.7,3.5v.1h0v.1L32.2,10,7.3,17.6H7.2a.349.349,0,0,0-.2.1l-.1.1c-.1.2-.2.2-.2.3a.1.1,0,0,1-.1.1l-5,13.4c0,.1-.1.2-.1.4v.2L6.9,77.8V78c.1,0,.1,0,.2.1a.1.1,0,0,0,.1.1h0l6,6.8c.1.1.2.2.3.2l48.8,27.4h0a.6.6,0,0,0,.4.1h.4c.1,0,.1,0,.2-.1l40-24.2a1.47,1.47,0,0,0,.5-.6l2.5-10.6v-.1l.6-7.4a7.5,7.5,0,0,1,1.4-.8c2.4-1.6,2.8-2.4,2.8-5.7C110.9,60.8,109,58,107.8,56.5ZM65,8.8h.5l6.8,1.4a1.612,1.612,0,0,1,.7.4l1.9,1.9a.713.713,0,0,1,.3.6l2.9,9.3a1.337,1.337,0,0,1-.8,1.7l-4.2,1.5-1.3-10a4.484,4.484,0,0,0-3.3-3.8l-5.8-1.6a.1.1,0,0,1,.1-.1A3.248,3.248,0,0,1,65,8.8ZM44.7,7.5c-.1-.1-.3-.4,0-1.1.2-.4.8-.3,1.1-.2L60.6,10a3.653,3.653,0,0,0-.3,1.5ZM33.5,13.9l1.6-8.6,5.1,1.8a5.549,5.549,0,0,0,.6,2.2,3.552,3.552,0,0,0-.9.4c-1.5.9-1.7,2.8-1.9,4.5-.1.5-.1.9-.2,1.4ZM43.8,9.3c.1,0,.1.1.2.1l1,.2c-.2,0-.3.1-.5.1h-.3c-.2-.1-.4-.1-.5-.2a2.76,2.76,0,0,1-1.5-2.6c0-1.6,1.1-2.9,2.3-2.9a1.268,1.268,0,0,1,.6.1,2.409,2.409,0,0,0-2.3,1.5A2.816,2.816,0,0,0,43.8,9.3ZM40,14.4c.1-1.3.3-2.6,1-3,.4-.3,1.3-.2,2.4.1.2,0,.3.1.5.1h1v2.6L40,15.5A2.045,2.045,0,0,1,40,14.4Zm22.2-2.3,5.7,1.6a2.452,2.452,0,0,1,1.8,2.1l1.2,9.7-5.1-1.6a1.273,1.273,0,0,1-.9-1.1,17.19,17.19,0,0,1-.2-2.6,9.281,9.281,0,0,0-2.1-6,.908.908,0,0,1-.3-.7C62.3,13,62.2,12.6,62.2,12.1ZM38.1,2a5.52,5.52,0,0,1,2,.3.1.1,0,0,1,.1.1l1.6.6a5.179,5.179,0,0,0-1.4,2.1L35.8,3.4A3.27,3.27,0,0,1,38.1,2ZM32,15.5l6,2.3h.1c.1,0,.2.1.4.1a.6.6,0,0,0,.4-.1L46,16a1.077,1.077,0,0,0,.8-1V10.9a5.008,5.008,0,0,0,.8-.7l12.8,3.3v.3a3.048,3.048,0,0,0,.8,1.6,6.85,6.85,0,0,1,1.6,4.7A23.283,23.283,0,0,0,63,23a3.37,3.37,0,0,0,2.3,2.7l5.8,1.9a1.087,1.087,0,0,0,.5.1c.2.1.3.2.5.2h.1a.52.52,0,0,0,.4-.2,4.331,4.331,0,0,0,.5-.1l4.6-1.7a3.449,3.449,0,0,0,2.1-4.2l-2.2-7,23.5,6.5L62.7,35.8,15.8,20.3a1.012,1.012,0,1,0-.7,1.9L61.3,37.5,56.5,51.4,3.6,31.4,8,19.9l2.8.9c.1,0,.2.1.3.1a.961.961,0,0,0,.9-.7,1.04,1.04,0,0,0-.6-1.3l-.7-.2,20.9-6.4-.4,2.1A1.479,1.479,0,0,0,32,15.5ZM12.3,81.1l44.2,23.6,2.9,4.1L14.5,83.5Zm91.9-4.3-2.4,10.1L63,110.4l-4.7-6.9V100a1,1,0,0,0-2,0v2.2L8.8,76.9,3.7,33.5,56.3,53.4V84.6a1,1,0,0,0,2,0V52.9l5.2-15.3L104,22.4l3.8,9L106,54.6c-1.2-.8-3.4-2.1-5.2-1-3.8,2.3-3.4,5.6-2.7,7.1a2.181,2.181,0,0,0,.4.5l2.4,1.2L80.2,73.7c-3,.9-10.9,2.4-13.7-.6a1.136,1.136,0,0,0-.8-.3,6.045,6.045,0,0,0-4.8,2.1c-1.6,2.2-.9,5.2-.9,5.4a2.092,2.092,0,0,0,.4.6,19.562,19.562,0,0,0,11.8,3.5,32.689,32.689,0,0,0,12.2-2.5c.7-.4,13.6-7.4,20.1-11Zm2.8-9.6c-1.6,1.1-16,9-23.3,12.9-.1.1-12.7,5.4-21.7-.6a4.694,4.694,0,0,1,.6-3.3,3.914,3.914,0,0,1,2.8-1.3c4.4,4,15,.9,15.4.7.1,0,.1,0,.2-.1l22.6-12.3a1.06,1.06,0,0,0,0-1.8l-3.8-1.9c-.2-.7-.5-2.6,2-4.2.8-.5,2.6.5,3.6,1.4a4.349,4.349,0,0,1,.6.7h0c1.2,1.4,2.9,3.9,2.9,5.7C108.9,65.8,108.8,65.9,107,67.2Z" fill="#20212c"/></g></svg>