<svg xmlns="http://www.w3.org/2000/svg" width="162.484" height="109.306" viewBox="0 0 162.484 109.306"><path d="M219.714,161.485l-12.451-28.272.5,6.806-20.157-.335v2.125l1.539,6.582,21.018,9h0Z" transform="translate(-104.203 -73.989)" fill="#20212c" fill-rule="evenodd"/><path d="M134.267,109.738l-17-30.131-15.43-.9-2.876,3.944L95.021,81.4v22.927l4.238.669h0l35.007,5.524Z" transform="translate(-52.777 -43.714)" fill="#20212c" fill-rule="evenodd"/><path d="M128.607,58.968l3.109,5.511L133.7,50.3l-10.721-5.418-9.621,13.2Z" transform="translate(-62.964 -24.928)" fill="#20212c" fill-rule="evenodd"/><path d="M173.613,153.112l2.941,5.061,1.516-.287,1.1.527-1.059-4.591Z" transform="translate(-96.428 -85.042)" fill="#20212c" fill-rule="evenodd"/><path d="M140.664,154.624l4.093-.774-3.385-5.825-21.41-3.378.726,1.657Z" transform="translate(-66.63 -80.34)" fill="#20212c" fill-rule="evenodd"/><path d="M195.01,119.944l-25.874-5.3,7.219,12.793,19.085.319Z" transform="translate(-93.942 -63.674)" fill="#20212c" fill-rule="evenodd"/><path d="M296.021,212.569l17.057,11.486-.368-.541-4.185-6.159Z" transform="translate(-164.416 -118.065)" fill="#20212c" fill-rule="evenodd"/><path d="M280.58,173.379l-16.347-23.532h0l-7.785-11.208-19.56-4.508,11.947,27.331h0l7.472,2.86h0l23.883,9.139Z" transform="translate(-131.572 -74.499)" fill="#20212c" fill-rule="evenodd"/><path d="M167.473,167.721h0l-.4-.172-.005-.024-1.914-.914-7.555,1.432-6.783-2.824,1.212,2.935,27.947,11.335h0l9.5,3.854-2.031-7.11-19.966-8.51Z" transform="translate(-83.762 -91.765)" fill="#20212c" fill-rule="evenodd"/><path d="M156.045,191.945l.91-3.731L133.64,176.536,144.2,187.451h0l4.893,4.494Z" transform="translate(-74.227 -98.052)" fill="#20212c" fill-rule="evenodd"/><path d="M155.841,177.4l1.257,3.043,22.433,11.236,1.231-4.172Z" transform="translate(-86.557 -98.533)" fill="#20212c" fill-rule="evenodd"/><path d="M233.561,114.237l-3.4.909v.767l15.06,3.557h0l-10.067-12.9-6.186-.482h0Z" transform="translate(-127.172 -58.921)" fill="#20212c" fill-rule="evenodd"/><path d="M81.281,80.416l-7.546-2.392h0L75.888,93.1l5.393,5.17Z" transform="translate(-40.954 -43.336)" fill="#20212c" fill-rule="evenodd"/><path d="M113.659,153.412l2.815,1.41.386.193h0L126,159.593l-3.384-8.194-11.933-4.97-1.525-3.487-4.6-.726v6.641l9.1,4.557Z" transform="translate(-58.073 -78.989)" fill="#20212c" fill-rule="evenodd"/><path d="M169.631,211.091h-7.723l-3.849-3.535,8.067,15.718,5.451-5.129Z" transform="translate(-87.789 -115.281)" fill="#20212c" fill-rule="evenodd"/><path d="M198.259,209.481l-9.377-4.7-.923,3.794,2.463,8.926h0l1.282,4.646.248.9,7.624-7.082-1.316-6.485Z" transform="translate(-104.396 -113.741)" fill="#20212c" fill-rule="evenodd"/><path d="M283.537,208.017l13.682,14.455v-3.384Z" transform="translate(-157.483 -115.537)" fill="#20212c" fill-rule="evenodd"/><path d="M350.7,231.288l-6-4.515-5.832-.729Z" transform="translate(-188.22 -125.55)" fill="#20212c" fill-rule="evenodd"/><path d="M321.5,195.183l5.158.646h0l3.6.45-5.361-13.962-18-8.47h-.219Z" transform="translate(-170.334 -96.559)" fill="#20212c" fill-rule="evenodd"/><path d="M158.134,75.137l3.642,6.453,28.054,5.752,1.5-.4L185.052,75.8h0l-3.311-5.875-21.363-10.8Z" transform="translate(-87.831 -32.839)" fill="#20212c" fill-rule="evenodd"/><path d="M59.85,32.091l14.509,4.6L88.552,17.223h0L67.027,0l-12.7,1.059-.281.105,8.4,9.417L52.063,21.947l.143.287,7.644,9.857Z" transform="translate(-28.917)" fill="#20212c" fill-rule="evenodd"/><path d="M30.939,12.922,23.2,4.242,0,12.944,22.224,22.47Z" transform="translate(0 -2.356)" fill="#20212c" fill-rule="evenodd"/></svg>