<svg xmlns="http://www.w3.org/2000/svg" width="271.798" height="167.001" viewBox="0 0 271.798 167.001"><g transform="translate(-0.041)"><g transform="translate(0.041 5.541)"><path d="M252.12,4.221c-7.93,8.723-15.6,17.711-24.32,25.642-10.045,9.252-21.676,15.861-33.043,23.263a281.408,281.408,0,0,0-22.734,16.918c-10.574,8.723-21.676,20.883-36.215,21.941-14.01,1.057-23.263-10.31-32.779-18.769a187.768,187.768,0,0,0-23-17.447C69.985,49.16,59.147,43.609,48.309,38.322,45.665,37,39.321,34.886,32.977,31.978a8.142,8.142,0,0,0-1.322-3.172,58.369,58.369,0,0,0-19.3-16.654c-4.494-2.908-9.516.793-9.781,5.551A16.668,16.668,0,0,0,6.013,29.07a4.954,4.954,0,0,0-1.586,1.85A7.294,7.294,0,0,0,.726,40.7,30,30,0,0,0,21.61,57.091a6.419,6.419,0,0,0,3.172,0c.529.264,1.057.793,1.586,1.057a40.088,40.088,0,0,0,12.16,8.459h0l1.586.793c7.4,2.908,10.838-8.195,5.023-12.16C41.7,52.861,38,50.482,34.563,48.1a8.033,8.033,0,0,1-1.322-1.85c8.195,3.965,16.654,7.666,24.584,11.9A197.61,197.61,0,0,1,96.684,85.376c8.723,7.93,17.447,16.389,29.342,19.3,17.711,3.965,32.515-5.816,46-16.918.264.529.264,1.057.793,1.586a107.586,107.586,0,0,0,25.377,29.342c5.023,4.23,11.9-.529,11.631-5.287a41.956,41.956,0,0,0,9.516,8.459c2.908,2.115,7.4.529,8.988-2.379a6.761,6.761,0,0,0-2.379-8.988A29.682,29.682,0,0,1,215.9,98.329c-1.586-3.172-6.08-3.965-8.988-2.379-3.437,1.85-3.965,5.816-2.379,8.988a19.717,19.717,0,0,0,1.85,3.172,100.738,100.738,0,0,1-21.676-25.642,6.849,6.849,0,0,0-2.908-2.643c3.7-3.172,7.4-6.344,11.1-8.988a17.78,17.78,0,0,1,2.908-1.85,6.079,6.079,0,0,0,7.93,4.494,55.566,55.566,0,0,0,25.642-16.654,6.553,6.553,0,0,0-.793-9.781c.264-.264.529-.264.793-.529,12.16-9.781,22.469-21.148,32.515-32.779C267.188,7.129,257.936-2.123,252.12,4.221Z" transform="translate(-0.041 -2.096)" fill="#fcf4b4"/><path d="M257.022,55.1c-31.722,1.586-63.708,3.437-95.429,5.023-9.516-.529-19.3-1.057-29.078-1.057-40.445,0-80.626,5.816-121.071,3.7-8.459-.529-8.459,12.689,0,13.217,35.951,1.85,71.638-2.379,107.325-3.437a5.5,5.5,0,0,0,5.551,2.908c12.424-.793,24.849-1.322,37.273-2.115,16.918,1.057,33.572,2.379,50.49,2.379,14.275,0,38.33,1.586,49.433-9.516C265.746,62.506,262.838,54.84,257.022,55.1Z" transform="translate(8.275 85.01)" fill="#fcf4b4"/><path d="M94.546,53.094l-1.322-1.322c-2.379-2.379-6.873-2.643-9.252,0a6.623,6.623,0,0,0,0,9.252l1.322,1.322c2.379,2.379,6.873,2.643,9.252,0A6.621,6.621,0,0,0,94.546,53.094Z" transform="translate(134.8 76.447)" fill="#fcf4b4"/><path d="M54.676,36.416c-2.115,7.4-6.344,13.482-11.367,18.769a5.789,5.789,0,0,0-3.172,3.437c-2.643,2.643-5.023,5.287-7.666,7.93a7.039,7.039,0,0,0-3.172.793c-4.494,3.172-8.723,6.08-13.217,9.252-2.908,2.115-4.23,5.816-2.379,8.988a4.641,4.641,0,0,0,1.057,1.322,48.627,48.627,0,0,0-4.494,5.816,6.574,6.574,0,1,0,11.367,6.609,14.663,14.663,0,0,1,1.586-2.115h0c.264-.264.529-.793,1.057-1.057a24.923,24.923,0,0,1,2.643-2.643,6.333,6.333,0,0,0,6.609-4.758C36.172,79.24,47.8,71.31,53.883,63.908c6.08-7.137,10.838-14.8,13.217-24.056C69.744,31.658,57.055,28.221,54.676,36.416Z" transform="translate(15.268 46.599)" fill="#fcf4b4"/></g><path d="M244.706,0H69.18a2.5,2.5,0,0,0-2.643,2.643A2.5,2.5,0,0,0,69.18,5.287H244.706a9.383,9.383,0,0,1,9.252,7.93L220.915,36.48a2.371,2.371,0,0,0-.529,3.7,2.4,2.4,0,0,0,2.115,1.057,3.757,3.757,0,0,0,1.586-.529l30.136-21.148V141.425a9.366,9.366,0,0,1-9.252,9.252H22.655l7.666-8.723a2.624,2.624,0,0,0-3.965-3.437l-10.574,12.16a9.41,9.41,0,0,1-8.195-9.252V19.562L84.247,73.488,71.823,87.5a2.57,2.57,0,0,0,.264,3.7,2.555,2.555,0,0,0,3.7,0L88.741,76.661l27.228,19.033a26.236,26.236,0,0,0,30.136,0l26.963-19.033,58.156,65.294a2.719,2.719,0,0,0,3.965-3.7L177.3,73.488l25.377-17.976a2.643,2.643,0,0,0-3.172-4.23L142.668,91.464a20.666,20.666,0,0,1-23.791,0L7.587,13.217a9.383,9.383,0,0,1,9.252-7.93h9.252a2.5,2.5,0,0,0,2.643-2.643A2.5,2.5,0,0,0,26.091,0H16.839A14.668,14.668,0,0,0,2.3,14.539V141.425a14.668,14.668,0,0,0,14.539,14.539H244.706a14.668,14.668,0,0,0,14.539-14.539V14.539A14.5,14.5,0,0,0,244.706,0Z" transform="translate(3.713)" fill="#20212c"/><path d="M21.243,5.287H30.5a2.5,2.5,0,0,0,2.643-2.643A2.5,2.5,0,0,0,30.5,0H21.243A2.5,2.5,0,0,0,18.6,2.643,2.649,2.649,0,0,0,21.243,5.287Z" transform="translate(30.502)" fill="#20212c"/><path d="M66.363,39.843A2.5,2.5,0,0,0,63.72,37.2H11.643a2.643,2.643,0,1,0,0,5.287H63.72A2.843,2.843,0,0,0,66.363,39.843Z" transform="translate(14.725 61.137)" fill="#20212c"/><path d="M11.643,47.087H34.113a2.643,2.643,0,1,0,0-5.287H11.643a2.643,2.643,0,1,0,0,5.287Z" transform="translate(14.725 68.697)" fill="#20212c"/><path d="M11.643,51.687H49.181a2.643,2.643,0,1,0,0-5.287H11.643a2.643,2.643,0,1,0,0,5.287Z" transform="translate(14.725 76.257)" fill="#20212c"/></g></svg>